<svg xmlns="http://www.w3.org/2000/svg" viewBox="0 0 300 600" fill="none">
  <rect width="300" height="600" rx="28" fill="#06162D"/>
  <rect x="18" y="18" width="264" height="564" rx="24" fill="url(#g)"/>
  <text x="34" y="150" fill="#FFFFFF" font-family="Arial, Helvetica, sans-serif" font-size="34" font-weight="700">SCROLL</text>
  <text x="34" y="188" fill="#FFFFFF" font-family="Arial, Helvetica, sans-serif" font-size="34" font-weight="700">THE</text>
  <text x="34" y="226" fill="#FFFFFF" font-family="Arial, Helvetica, sans-serif" font-size="34" font-weight="700">MATCHDAY</text>
  <text x="34" y="270" fill="#D8EAFF" font-family="Arial, Helvetica, sans-serif" font-size="18" font-weight="600">Reveal Pepsi branding while the reader moves through editorial.</text>
  <circle cx="224" cy="450" r="46" fill="#fff"/>
  <path d="M182 455c21-16 50-21 85-13 16 3 31 9 42 18-10 19-29 32-53 38-25 6-50 2-74-10v-33Z" fill="#E32934"/>
  <path d="M182 439c19 14 50 18 85 11 16-3 31-9 42-18-11-19-28-32-53-38-25-6-50-2-74 10v35Z" fill="#004B93"/>
  <defs>
    <linearGradient id="g" x1="18" y1="18" x2="282" y2="582" gradientUnits="userSpaceOnUse">
      <stop stop-color="#004B93"/>
      <stop offset="1" stop-color="#E32934"/>
    </linearGradient>
  </defs>
</svg>
