<svg xmlns="http://www.w3.org/2000/svg" viewBox="0 0 360 110" fill="none">
  <rect width="360" height="110" rx="28" fill="#04152B"/>
  <circle cx="72" cy="55" r="34" fill="#fff"/>
  <path d="M43 59c12-9 33-12 58-8 8 2 17 5 25 10-6 13-19 23-35 27-17 4-35 1-48-7 0-8 0-15 0-22Z" fill="#E32934"/>
  <path d="M43 50c12 8 33 11 58 7 8-2 17-5 25-10-6-13-19-23-35-27-17-4-35-2-48 7v23Z" fill="#004B93"/>
  <text x="128" y="49" fill="#F8FBFF" font-family="Arial, Helvetica, sans-serif" font-size="24" font-weight="700">PEPSI</text>
  <text x="128" y="77" fill="#8FC1FF" font-family="Arial, Helvetica, sans-serif" font-size="18" font-weight="600" letter-spacing="2">SUMMER 2026</text>
</svg>
