<svg xmlns="http://www.w3.org/2000/svg" viewBox="0 0 160 900" fill="none">
  <rect width="160" height="900" fill="#041225"/>
  <rect x="14" y="14" width="132" height="872" rx="28" fill="url(#g)"/>
  <text x="38" y="160" fill="#FFFFFF" font-family="Arial, Helvetica, sans-serif" font-size="30" font-weight="700" transform="rotate(-90 38 160)">PEPSI SUMMER</text>
  <text x="66" y="540" fill="#D8EAFF" font-family="Arial, Helvetica, sans-serif" font-size="18" font-weight="700" transform="rotate(-90 66 540)">LATAM MATCHDAY TAKEOVER</text>
  <circle cx="80" cy="760" r="34" fill="#fff"/>
  <path d="M49 764c15-11 37-14 63-9 11 2 22 7 31 14-8 14-22 24-40 28-18 5-37 2-54-8v-25Z" fill="#E32934"/>
  <path d="M49 751c14 10 37 13 63 8 11-2 22-7 31-14-8-14-22-24-40-29-18-4-37-1-54 8v27Z" fill="#004B93"/>
  <defs>
    <linearGradient id="g" x1="14" y1="14" x2="146" y2="886" gradientUnits="userSpaceOnUse">
      <stop stop-color="#004B93"/>
      <stop offset="1" stop-color="#E32934"/>
    </linearGradient>
  </defs>
</svg>
